<?xml version="1.0" encoding="utf-8"?>
<!-- Generator: Adobe Illustrator 18.0.0, SVG Export Plug-In . SVG Version: 6.00 Build 0)  -->
<!DOCTYPE svg PUBLIC "-//W3C//DTD SVG 1.1//EN" "http://www.w3.org/Graphics/SVG/1.1/DTD/svg11.dtd">
<svg version="1.1" id="Layer_1" xmlns="http://www.w3.org/2000/svg" xmlns:xlink="http://www.w3.org/1999/xlink" x="0px" y="0px"
	 viewBox="0 0 236.9 48.5" enable-background="new 0 0 236.9 48.5" xml:space="preserve">
<path fill="#3C5A95" d="M126.4,23.6c-2,0-3.5,0.7-5,1.3v15.3c1.4,0.1,2.2,0.1,3.6,0.1c4.9,0,5.5-2.2,5.5-5.3v-7.3
	C130.6,25.4,129.8,23.6,126.4,23.6 M94.1,22.7c-3.4,0-4.1,1.9-4.1,4.1v1.3h8.3v-1.3C98.3,24.6,97.5,22.7,94.1,22.7 M31.5,38.7
	c0,1.8,0.9,2.8,2.7,2.8c2,0,3.2-0.7,4.7-1.3v-3.6h-4.4C32.4,36.5,31.5,36.9,31.5,38.7 M157.9,23.6c-3.4,0-4.6,1.8-4.6,4.1v8.4
	c0,2.3,1.2,4.1,4.6,4.1c3.4,0,4.6-1.8,4.6-4.1v-8.4C162.5,25.4,161.3,23.6,157.9,23.6 M14.9,48.1H5V24H0v-8.3h5v-5C5,4,7.8,0,15.7,0
	h6.6v8.3h-4.1c-3.1,0-3.3,1.2-3.3,3.3l0,4.1h7.5L21.6,24h-6.6V48.1z M48.9,48.1h-8.3L40.3,46c-3.8,2.1-7.2,2.4-9.4,2.4
	c-6.1,0-9.3-4.1-9.3-9.7c0-6.6,3.8-9,10.5-9H39v-1.4c0-3.4-0.4-4.4-5.6-4.4h-8.5l0.8-8.3H35c11.4,0,13.9,3.6,13.9,12.7V48.1z
	 M77.1,24.6c-5.2-0.9-6.6-1.1-9.1-1.1c-4.5,0-5.8,1-5.8,4.8v7.2c0,3.8,1.3,4.8,5.8,4.8c2.5,0,4-0.2,9.1-1.1v8.1
	c-4.5,1-7.5,1.3-9.9,1.3c-10.7,0-14.9-5.6-14.9-13.7V29c0-8.1,4.2-13.7,14.9-13.7c2.5,0,5.4,0.3,9.9,1.3V24.6z M108.2,34.8H90v0.7
	c0,3.8,1.3,4.8,5.8,4.8c4,0,6.5-0.2,11.6-1.1v8.1c-5,1-7.5,1.3-12.4,1.3C84.3,48.5,80,42.9,80,34.8v-6.6c0-7.1,3.2-12.9,14.1-12.9
	c10.9,0,14.1,5.7,14.1,12.9V34.8z M140.5,35c0,7.8-2.2,13.5-15.8,13.5c-4.9,0-7.8-0.4-13.2-1.3V2.5l9.9-1.7v15.7
	c2.1-0.8,4.9-1.2,7.5-1.2c9.9,0,11.6,4.5,11.6,11.6V35z M172.4,35.1c0,6.8-2.8,13.3-14.5,13.3c-11.7,0-14.5-6.6-14.5-13.3v-6.5
	c0-6.8,2.8-13.3,14.5-13.3c11.7,0,14.5,6.6,14.5,13.3V35.1z M204.2,35.1c0,6.8-2.8,13.3-14.5,13.3c-11.7,0-14.5-6.6-14.5-13.3v-6.5
	c0-6.8,2.8-13.3,14.5-13.3c11.7,0,14.5,6.6,14.5,13.3V35.1z M236.9,48.1h-10.8L217,32.9v15.2h-9.9V2.5l9.9-1.7v29.3l9.1-14.4h10.8
	l-10,15.7L236.9,48.1z M189.7,23.6c-3.4,0-4.5,1.8-4.5,4.1v8.4c0,2.3,1.2,4.1,4.5,4.1c3.4,0,4.6-1.8,4.6-4.1v-8.4
	C194.3,25.4,193.1,23.6,189.7,23.6"/>
</svg>
