<?xml version="1.0" encoding="utf-8"?>
<!-- Generator: Adobe Illustrator 18.0.0, SVG Export Plug-In . SVG Version: 6.00 Build 0)  -->
<!DOCTYPE svg PUBLIC "-//W3C//DTD SVG 1.1//EN" "http://www.w3.org/Graphics/SVG/1.1/DTD/svg11.dtd">
<svg version="1.1" id="Layer_1" xmlns="http://www.w3.org/2000/svg" xmlns:xlink="http://www.w3.org/1999/xlink" x="0px" y="0px"
	 viewBox="0 0 39.1 36" enable-background="new 0 0 39.1 36" xml:space="preserve">
<path fill="#686871" d="M20.5,24.2V32c0,1.1-0.9,2-2,2H4c-1.1,0-2-0.9-2-2V4c0-1.1,0.9-2,2-2h14.5c1.1,0,2,0.9,2,2v7.8h2V4
	c0-2.2-1.8-4-4-4H4C1.8,0,0,1.8,0,4v28c0,2.2,1.8,4,4,4h14.5c2.2,0,4-1.8,4-4v-7.8H20.5z"/>
<g>
	<g>
		<rect x="8.7" y="17.2" fill="#686871" width="28.8" height="1.7"/>
	</g>
	<g>
		<polygon fill="#686871" points="37,18 28.8,28.5 30.9,28.5 39.1,18 39.1,18 39.1,18 31,7.5 28.8,7.5 		"/>
	</g>
</g>
</svg>
