<?xml version="1.0" encoding="utf-8"?>
<!-- Generator: Adobe Illustrator 18.0.0, SVG Export Plug-In . SVG Version: 6.00 Build 0)  -->
<!DOCTYPE svg PUBLIC "-//W3C//DTD SVG 1.1//EN" "http://www.w3.org/Graphics/SVG/1.1/DTD/svg11.dtd">
<svg version="1.1" id="Layer_1" xmlns="http://www.w3.org/2000/svg" xmlns:xlink="http://www.w3.org/1999/xlink" x="0px" y="0px"
	 viewBox="0 0 158.5 156.7" enable-background="new 0 0 158.5 156.7" xml:space="preserve">
<g>
	<path fill="#DAF638" d="M140.9,27.7C129.7,13.9,114.1,4.1,96.9,0.2C96.3,0.1,95.8,0,95.3,0c-1.6,0-3.2,0.5-4.4,1.5
		c-1.7,1.3-2.7,3.4-2.7,5.6V23c0,3.1,2.1,5.9,5.1,6.8c21,6.2,35.6,25.8,35.6,47.6c0,6-1.1,11.8-3.1,17.4c-1.1,3-0.1,6.3,2.4,8.2
		l12.7,9.6c1.2,0.9,2.7,1.4,4.3,1.4c0.6,0,1.2-0.1,1.8-0.2c2.1-0.5,3.8-2,4.7-4c4.6-10.2,6.9-21.1,6.9-32.3
		C158.5,59.4,152.3,41.7,140.9,27.7z"/>
	<path fill="#DEDEDE" d="M130.2,126.8l-12.7-9.5c-1.3-0.9-2.8-1.4-4.3-1.4c-1.5,0-3,0.5-4.3,1.4c-8.6,6.5-18.9,9.9-29.7,9.9
		c-27.4,0-49.6-22.3-49.6-49.6c0-21.8,14.7-41.4,35.6-47.6c3-0.9,5.1-3.7,5.1-6.8V7.1c0-2.2-1-4.2-2.7-5.6c-1.3-1-2.8-1.5-4.4-1.5
		c-0.5,0-1,0.1-1.6,0.2C44.5,4.1,28.8,13.9,17.6,27.7C6.3,41.7,0,59.4,0,77.5c0,43.7,35.6,79.3,79.3,79.3c18.7,0,36.9-6.7,51.2-18.9
		c1.7-1.4,2.6-3.5,2.5-5.6C132.9,130.1,131.9,128.1,130.2,126.8z"/>
</g>
</svg>
