<?xml version="1.0" encoding="utf-8"?>
<!-- Generator: Adobe Illustrator 18.0.0, SVG Export Plug-In . SVG Version: 6.00 Build 0)  -->
<!DOCTYPE svg PUBLIC "-//W3C//DTD SVG 1.1//EN" "http://www.w3.org/Graphics/SVG/1.1/DTD/svg11.dtd">
<svg version="1.1" id="Layer_1" xmlns="http://www.w3.org/2000/svg" xmlns:xlink="http://www.w3.org/1999/xlink" x="0px" y="0px"
	 viewBox="0 0 50.8 48.9" enable-background="new 0 0 50.8 48.9" xml:space="preserve">
<g>
	<path fill="#929292" d="M28.4,48.9C18.9,47.2,9.5,45.5,0,43.8C0,30.9,0,18,0,5.1C9.5,3.4,18.9,1.7,28.4,0
		C28.4,16.3,28.4,32.5,28.4,48.9z M12.6,25.3c1.9,0,3.7,0,5.5,0c0-1.3,0-2.7,0-4c-0.4,0-0.7,0-1-0.1c-1.3,0-2.6-0.1-3.9-0.1
		c-0.4,0-0.6-0.1-0.6-0.6c0-1,0-2,0-3c0-0.4-0.1-0.7,0.1-1.1c2.2,0,4.3,0,6.5,0c0-1.4,0-2.7,0-4.1c-3.6,0.3-7.3,0.5-10.9,0.8
		c0,6.8,0,13.6,0,20.4c3.6,0.4,7.1,0.8,10.7,1.2c0-1.5,0-2.9,0-4.3c-2.2-0.2-4.3-0.4-6.4-0.5C12.6,28.3,12.6,26.8,12.6,25.3z"/>
	<path fill="#929292" d="M31,39.3c0-1.2,0-2.4,0-3.6c1.3,0.1,2-0.8,2.7-1.7c1.8-2.2,3.5-4.5,4.7-7.1c-0.1-0.2-0.3-0.4-0.5-0.5
		c-1.1,1.1-2.3,2.2-3.4,3.3c-0.8,0.8-1.6,1.6-2.5,2.5c-0.3,0.3-0.6,0.5-1.1,0.3c0-2.3,0-4.7,0-7.1c0.8,0.4,1.5,0.9,2.3,1.3
		c0.5,0.3,0.5,0.3,0.9-0.3c-1-1-1.9-1.9-2.9-2.9c-0.2-0.2-0.4-0.4-0.4-0.8c0-2,0-4,0-6.1c0.6,0,1.2-0.2,1.7,0.2
		c0.4,0.4,0.8,0.8,1.2,1.2c0.5-0.4,0.8-1,1.1-1.5c0.2-0.3,0-0.4-0.1-0.6c-0.8-0.7-1.5-1.4-2.3-2.2c-0.4-0.4-1-0.1-1.6-0.3
		c0-1.2,0-2.3,0-3.5c0.2-0.2,0.5-0.1,0.7-0.1c5.5,0,10.9,0,16.4,0c1.8,0,2.6,0.8,2.6,2.6c0,8,0,16,0,23.9c0,2.1-0.7,2.8-2.9,2.8
		c-5.3,0-10.6,0-15.9,0C31.7,39.3,31.4,39.3,31,39.3z M44.1,32.6c-0.9,0-1.6,0-2.4,0c-1.3,0-3.3-1.3-3.3-1.4l-1,1.3
		c-0.3,0.3-0.2,0.6,0.1,0.8c0.7,0.6,1.4,1.3,2,1.9c0.3,0.3,0.6,0.4,1.1,0.4c1.9,0,3.7,0,5.6,0c0.9,0,1.1-0.2,1.1-1.1
		c0-1.7,0-3.4,0-5.1c0-0.7-0.2-1.3-0.7-1.7c-2.3-2-4.8-3.8-7.5-5.3c-0.4-0.2-0.8-0.3-1,0.4c0.2,0.1,0.4,0.3,0.6,0.5
		c1.7,1.7,3.4,3.4,5.1,5c0.2,0.2,0.5,0.4,0.5,0.7C44.1,30.3,44.1,31.4,44.1,32.6z M42.8,22.5c0.4,0.3,0.9,0.6,1.3,0.9
		c0.3,0.2,0.5,0.2,0.8-0.1c0.7-0.7,1.4-1.5,2-2.2c0.2-0.2,0.3-0.5,0.3-0.8c0-2,0-3.9,0-5.9c0-0.6-0.3-0.9-0.9-0.9
		c-1.9,0-3.8,0-5.7,0c-0.4,0-0.8,0.2-1,0.5c-2.2,2.4-4.1,5-5.6,7.9c-0.2,0.5-0.1,0.7,0.2,0.8c1.7-1.7,3.5-3.2,5-4.9
		c0.9-0.9,1.7-1.3,3-1.2c1.9,0.1,1.8,0,1.9,1.9c0.1,1.5,0.1,2.9-1.3,3.8C42.8,22.3,42.8,22.4,42.8,22.5z"/>
</g>
</svg>
