<?xml version="1.0" encoding="utf-8"?>
<!-- Generator: Adobe Illustrator 18.0.0, SVG Export Plug-In . SVG Version: 6.00 Build 0)  -->
<!DOCTYPE svg PUBLIC "-//W3C//DTD SVG 1.1//EN" "http://www.w3.org/Graphics/SVG/1.1/DTD/svg11.dtd">
<svg version="1.1" id="Layer_1" xmlns="http://www.w3.org/2000/svg" xmlns:xlink="http://www.w3.org/1999/xlink" x="0px" y="0px"
	 viewBox="0 0 41.8 42.8" enable-background="new 0 0 41.8 42.8" xml:space="preserve">
<path fill-rule="evenodd" clip-rule="evenodd" fill="#929292" d="M35.5,9.4l4.2-4.3c-7.1-5.9-19.3-6.6-27.3-2.6
	C5.4,6.1,0.3,13.1,0,21c-0.3,8.3,4.5,14.8,9.4,18.1c8.1,5.4,22,4.2,30.4,0l0-0.8h0v-8.7l2-2.3H29.6L25,29.9l8.8-0.3
	c0,2.5,0,5.2,0,7.6c0,1.1,0,1.3-1.8,1.8c-2.5,0.7-5.4,0.8-8,0.6C15.3,39,8.6,32,7,23.3C5.5,15.1,9.4,7.3,16,4.1
	c3.2-1.6,7.1-2.3,11.2-1c2.6,0.8,5,2.3,7.1,4.4l-1.4,2.6L35.5,9.4L35.5,9.4z"/>
</svg>
