<?xml version="1.0" encoding="utf-8"?>
<!-- Generator: Adobe Illustrator 18.0.0, SVG Export Plug-In . SVG Version: 6.00 Build 0)  -->
<!DOCTYPE svg PUBLIC "-//W3C//DTD SVG 1.1//EN" "http://www.w3.org/Graphics/SVG/1.1/DTD/svg11.dtd">
<svg version="1.1" id="Vector_Smart_Object_xA0_Bild_1_"
	 xmlns="http://www.w3.org/2000/svg" xmlns:xlink="http://www.w3.org/1999/xlink" x="0px" y="0px" viewBox="0 0 490 490"
	 enable-background="new 0 0 490 490" xml:space="preserve">
<path fill="#EF4136" d="M418.2,71.8C372,25.5,310.4,0,245,0S118,25.5,71.8,71.8C25.5,118,0,179.6,0,245c0,65.4,25.5,127,71.8,173.2
	C118,464.5,179.6,490,245,490s127-25.5,173.2-71.8C464.5,372,490,310.4,490,245C490,179.6,464.5,118,418.2,71.8z M83.1,406.9
	c-9.2-9.2-17.5-19-24.9-29.4c4.8-2.1,10.8-4.7,14-6.2c20.5-9.7,40.9-19.5,59-33.4c4.3-3.3,8.5-6.8,12.2-10.7
	c5.8-6.1,5.8-13.6,0.4-20.1c-8.6-10.2-14.5-21.9-19.6-34.2c-1.8-4.3-4.3-8.4-7.1-12.1c-7.5-9.6-8.7-19.7-3.9-30.9
	c1.6-3.8,2.7-8,2.9-12.1c0.8-14.4-0.1-28.9,1.8-43.1c3.9-29.1,20-45.7,48.6-51.8c19.5-4.1,39-3.7,58,3.3
	c23.3,8.7,37.6,28.6,38.1,53.5c0.3,12.5,0,25.1,0.4,37.6c0.1,3.8,1.1,7.7,2.7,11.1c5.9,12.6,4.4,23.3-4.8,33.7
	c-2.3,2.6-4.1,5.8-5.3,9.1c-4.7,12.8-10.9,24.7-19.7,35.2c-6.5,7.8-6,14.3,1.1,21.4c11.7,11.8,25.6,20.6,40.3,27.9
	c23.1,11.5,46.7,22,70.3,32.7c11.1,5,13.3,7.8,13.1,20c-0.2,11.4-0.3,22.9-0.4,34.3c-34.6,20.2-74.1,31-115.3,31
	C183.8,474,126.3,450.2,83.1,406.9z M406.9,406.9c-7.2,7.2-14.8,13.9-22.8,20c0-8.5-0.1-17-0.1-25.5c0.1-13.8-6-24.2-17.9-30.8
	c-8.6-4.7-17.4-9.1-26.4-12.8c-21.5-9-37.8-23.3-47.5-44.8c-2.2-4.9-5.4-9.4-8.6-13.7c-4.7-6.5-5.2-13.1-2.4-20.6
	c1.8-4.8,2.9-10,3.2-15.1c0.7-9.4-0.1-19,0.9-28.4c2.5-23.3,14.4-36.8,37.1-42.4c14.5-3.6,29.1-3.6,43.6,0.6
	c20.9,6.1,33.8,22.4,34.4,44.3c0.3,9.6-0.1,19.3,0.2,28.9c0.1,3.3,0.9,6.7,2.2,9.7c4.6,10.3,3.5,18.1-4.1,26.6c-1.5,1.7-2.3,4-3.5,6
	c-3.2,5.5-6.3,11.1-9.9,16.4c-2.9,4.3-6.5,8.2-9.6,12.4c-3.2,4.4-2.8,8.7,0.6,13c7.2,9.1,16.2,15.8,26.3,21.1
	c7.9,4.1,15.9,8.1,24.2,12.2C420.9,392,414.2,399.7,406.9,406.9z"/>
</svg>
