<?xml version="1.0" encoding="utf-8"?>
<!-- Generator: Adobe Illustrator 18.0.0, SVG Export Plug-In . SVG Version: 6.00 Build 0)  -->
<!DOCTYPE svg PUBLIC "-//W3C//DTD SVG 1.1//EN" "http://www.w3.org/Graphics/SVG/1.1/DTD/svg11.dtd">
<svg version="1.1" id="Layer_1" xmlns="http://www.w3.org/2000/svg" xmlns:xlink="http://www.w3.org/1999/xlink" x="0px" y="0px"
	 viewBox="0 0 49.1 58.1" enable-background="new 0 0 49.1 58.1" xml:space="preserve">
<g>
	<g>
		<path fill="#929292" d="M49.1,42.9c-1.3,3-2,4.3-3.7,6.9c-2.4,3.7-5.8,8.2-10,8.3c-3.7,0-4.7-2.4-9.8-2.4c-5.1,0-6.1,2.4-9.9,2.4
			c-4.2,0-7.4-4.2-9.8-7.8C-0.9,40-1.6,28,2.6,21.6c3-4.5,7.6-7.2,12-7.2c4.5,0,7.3,2.4,10.9,2.4c3.6,0,5.8-2.4,10.9-2.4
			c3.9,0,8,2.1,11,5.8C37.7,25.4,39.3,39.2,49.1,42.9z"/>
		<g>
			<path fill="#929292" d="M32.5,9.3c1.9-2.4,3.3-5.8,2.8-9.3c-3.1,0.2-6.6,2.2-8.7,4.7c-1.9,2.3-3.5,5.7-2.9,9
				C27,13.8,30.5,11.8,32.5,9.3z"/>
		</g>
	</g>
</g>
</svg>
