<?xml version="1.0" encoding="utf-8"?>
<!-- Generator: Adobe Illustrator 18.0.0, SVG Export Plug-In . SVG Version: 6.00 Build 0)  -->
<!DOCTYPE svg PUBLIC "-//W3C//DTD SVG 1.1//EN" "http://www.w3.org/Graphics/SVG/1.1/DTD/svg11.dtd">
<svg version="1.1" id="Layer_1" xmlns="http://www.w3.org/2000/svg" xmlns:xlink="http://www.w3.org/1999/xlink" x="0px" y="0px"
	 viewBox="0 0 102 102" enable-background="new 0 0 102 102" xml:space="preserve">
<path fill="#FF453B" d="M51,0C22.8,0,0,22.8,0,51s22.8,51,51,51s51-22.8,51-51S79.2,0,51,0z M51,98c-11.8,0-22.6-4.4-30.9-11.6
	c2.2-1.1,4.5-2.2,6.7-3.2c4.5-1.9,5.4-3.1,9.9-5.1c0,0,0.5-2.3,0.3-3.7l3.8-0.5c0,0,0.5,0.9-0.3-4.5c0,0-4.3-1.1-4.5-9.8
	c0,0-3.2,1.1-3.4-4.1c-0.1-3.5-2.9-6.6,1.1-9.2l-2-5.4c0,0-2.1-21,7.2-19.3c-3.8-6,28-11.1,30.1,7.4c0,0,1.5,10,0,16.8
	c0,0,4.7-0.5,1.6,8.6c0,0-1.7,6.6-4.4,5.1c0,0,0.4,8.3-3.8,9.7c0,0,0.3,4.4,0.3,4.7l3.5,0.5c0,0-0.1,3.7,0.6,4.1
	c0,0,4.8,3.3,10.4,4.7c2.2,0.6,4.1,1.2,5.9,1.9C74.7,93.2,63.4,98,51,98z"/>
</svg>
