<?xml version="1.0" encoding="utf-8"?>
<!-- Generator: Adobe Illustrator 18.0.0, SVG Export Plug-In . SVG Version: 6.00 Build 0)  -->
<!DOCTYPE svg PUBLIC "-//W3C//DTD SVG 1.1//EN" "http://www.w3.org/Graphics/SVG/1.1/DTD/svg11.dtd">
<svg version="1.1" id="Layer_1" xmlns="http://www.w3.org/2000/svg" xmlns:xlink="http://www.w3.org/1999/xlink" x="0px" y="0px"
	 viewBox="0 0 82 82" enable-background="new 0 0 82 82" xml:space="preserve">
<path fill="#FF3B30" d="M41,0C18.4,0,0,18.4,0,41s18.4,41,41,41s41-18.4,41-41S63.6,0,41,0z M41,78.8c-9.5,0-18.2-3.5-24.8-9.3
	c1.8-0.9,3.6-1.8,5.4-2.5c3.6-1.6,4.4-2.5,8-4.1c0,0,0.4-1.9,0.2-3l3.1-0.4c0,0,0.4,0.7-0.2-3.6c0,0-3.4-0.9-3.6-7.9
	c0,0-2.6,0.9-2.7-3.3c-0.1-2.9-2.3-5.3,0.9-7.4L25.5,33c0,0-1.7-16.9,5.8-15.5c-3-4.9,22.5-8.9,24.2,6c0,0,1.2,8,0,13.5
	c0,0,3.8-0.4,1.3,6.9c0,0-1.4,5.3-3.6,4.1c0,0,0.3,6.7-3,7.8c0,0,0.2,3.6,0.2,3.8l2.8,0.4c0,0-0.1,3,0.5,3.3c0,0,3.8,2.6,8.4,3.8
	c1.8,0.5,3.3,1,4.7,1.5C60.1,74.9,51,78.8,41,78.8z"/>
</svg>
