<?xml version="1.0" encoding="utf-8"?>
<!-- Generator: Adobe Illustrator 18.0.0, SVG Export Plug-In . SVG Version: 6.00 Build 0)  -->
<!DOCTYPE svg PUBLIC "-//W3C//DTD SVG 1.1//EN" "http://www.w3.org/Graphics/SVG/1.1/DTD/svg11.dtd">
<svg version="1.1" id="Ebene_1" xmlns="http://www.w3.org/2000/svg" xmlns:xlink="http://www.w3.org/1999/xlink" x="0px" y="0px"
	 viewBox="0 0 100 138" enable-background="new 0 0 100 138" xml:space="preserve">
<path fill="#FF3B30" d="M98.2,64H88V37.1C88,16.7,71.8,0,51.4,0h0C31,0,14,16.7,14,37.1V64H3.3C1.7,64,0,63.7,0,65.2v68.2
	c0,1.6,1.7,4.5,3.3,4.5h48.2h0h46.7c1.6,0,1.8-3,1.8-4.5V65.2C100,63.7,99.7,64,98.2,64z M28,37.1c0-12.5,10.5-22.7,23-22.7
	s23,10.2,23,22.7V64H28V37.1z"/>
</svg>
