<?xml version="1.0" encoding="utf-8"?>
<!-- Generator: Adobe Illustrator 18.0.0, SVG Export Plug-In . SVG Version: 6.00 Build 0)  -->
<!DOCTYPE svg PUBLIC "-//W3C//DTD SVG 1.1//EN" "http://www.w3.org/Graphics/SVG/1.1/DTD/svg11.dtd">
<svg version="1.1" id="Layer_1" xmlns="http://www.w3.org/2000/svg" xmlns:xlink="http://www.w3.org/1999/xlink" x="0px" y="0px"
	 viewBox="0 0 51 50.4" enable-background="new 0 0 51 50.4" xml:space="preserve">
<g>
	<g>
		<path fill="#929292" d="M45.3,8.9c-3.6-4.4-8.6-7.6-14.2-8.8C31,0,30.8,0,30.6,0c-0.5,0-1,0.2-1.4,0.5c-0.5,0.4-0.9,1.1-0.9,1.8
			v5.1c0,1,0.7,1.9,1.6,2.2c6.7,2,11.5,8.3,11.5,15.3c0,1.9-0.3,3.8-1,5.6c-0.4,1,0,2,0.8,2.6l4.1,3.1c0.4,0.3,0.9,0.5,1.4,0.5
			c0.2,0,0.4,0,0.6-0.1c0.7-0.2,1.2-0.6,1.5-1.3C50.2,32,51,28.5,51,24.9C51,19.1,48.9,13.4,45.3,8.9z"/>
		<path fill="#929292" d="M41.8,40.7l-4.1-3.1c-0.4-0.3-0.9-0.5-1.4-0.5c-0.5,0-1,0.2-1.4,0.5c-2.8,2.1-6.1,3.2-9.5,3.2
			c-8.8,0-16-7.2-16-16c0-7,4.7-13.3,11.5-15.3c1-0.3,1.6-1.2,1.6-2.2V2.3c0-0.7-0.3-1.4-0.9-1.8C21.4,0.2,20.8,0,20.3,0
			c-0.2,0-0.3,0-0.5,0.1C14.3,1.3,9.3,4.5,5.7,8.9C2,13.4,0,19.1,0,24.9c0,14.1,11.4,25.5,25.5,25.5c6,0,11.9-2.2,16.5-6.1
			c0.5-0.4,0.8-1.1,0.8-1.8C42.7,41.8,42.4,41.2,41.8,40.7z"/>
	</g>
</g>
</svg>
