<?xml version="1.0" encoding="utf-8"?>
<!-- Generator: Adobe Illustrator 18.0.0, SVG Export Plug-In . SVG Version: 6.00 Build 0)  -->
<!DOCTYPE svg PUBLIC "-//W3C//DTD SVG 1.1//EN" "http://www.w3.org/Graphics/SVG/1.1/DTD/svg11.dtd">
<svg version="1.1" id="Ebene_1" xmlns="http://www.w3.org/2000/svg" xmlns:xlink="http://www.w3.org/1999/xlink" x="0px" y="0px"
	 viewBox="0 0 33.7 46.6" enable-background="new 0 0 33.7 46.6" xml:space="preserve">
<path fill="#929292" d="M33.1,21.6h-3.4v-9.1C29.7,5.6,24.2,0,17.4,0h0C10.5,0,4.7,5.6,4.7,12.5v9.1H1.1C0.6,21.6,0,21.5,0,22v23
	c0,0.5,0.6,1.5,1.1,1.5h16.3h0h15.8c0.5,0,0.6-1,0.6-1.5V22C33.7,21.5,33.7,21.6,33.1,21.6z M25,21.6H9.4v-9.1
	c0-4.2,3.5-7.7,7.8-7.7S25,8.3,25,12.5V21.6z"/>
</svg>
