<?xml version="1.0" encoding="utf-8"?>
<!-- Generator: Adobe Illustrator 18.0.0, SVG Export Plug-In . SVG Version: 6.00 Build 0)  -->
<!DOCTYPE svg PUBLIC "-//W3C//DTD SVG 1.1//EN" "http://www.w3.org/Graphics/SVG/1.1/DTD/svg11.dtd">
<svg version="1.1" id="Layer_1" xmlns="http://www.w3.org/2000/svg" xmlns:xlink="http://www.w3.org/1999/xlink" x="0px" y="0px"
	 viewBox="0 0 77.3 76.4" enable-background="new 0 0 77.3 76.4" xml:space="preserve">
<g>
	<g>
		<path fill="#E6E6E6" d="M68.7,13.5C63.2,6.8,55.6,2,47.2,0.1C46.9,0,46.7,0,46.4,0c-0.8,0-1.5,0.3-2.2,0.8C43.4,1.4,43,2.4,43,3.5
			v7.8c0,1.5,1,2.9,2.5,3.3c10.2,3,17.4,12.6,17.4,23.2c0,2.9-0.5,5.8-1.5,8.5c-0.5,1.4-0.1,3.1,1.2,4l6.2,4.7
			c0.6,0.5,1.3,0.7,2.1,0.7c0.3,0,0.6,0,0.9-0.1c1-0.3,1.9-1,2.3-1.9c2.2-5,3.4-10.3,3.4-15.7C77.3,28.9,74.2,20.3,68.7,13.5z"/>
		<path fill="#E6E6E6" d="M63.4,61.8l-6.2-4.6c-0.6-0.5-1.3-0.7-2.1-0.7c-0.7,0-1.5,0.2-2.1,0.7c-4.2,3.1-9.2,4.8-14.5,4.8
			c-13.3,0-24.2-10.8-24.2-24.2c0-10.6,7.1-20.2,17.4-23.2c1.5-0.4,2.5-1.8,2.5-3.3V3.5c0-1.1-0.5-2.1-1.3-2.7
			C32.4,0.3,31.6,0,30.8,0c-0.3,0-0.5,0-0.8,0.1C21.7,2,14,6.8,8.6,13.5C3,20.3,0,28.9,0,37.7C0,59,17.3,76.4,38.6,76.4
			c9.1,0,18-3.3,25-9.2c0.8-0.7,1.3-1.7,1.2-2.7C64.8,63.4,64.3,62.4,63.4,61.8z"/>
	</g>
</g>
</svg>
