<?xml version="1.0" encoding="utf-8"?>
<!-- Generator: Adobe Illustrator 18.0.0, SVG Export Plug-In . SVG Version: 6.00 Build 0)  -->
<!DOCTYPE svg PUBLIC "-//W3C//DTD SVG 1.1//EN" "http://www.w3.org/Graphics/SVG/1.1/DTD/svg11.dtd">
<svg version="1.1" id="Layer_1" xmlns="http://www.w3.org/2000/svg" xmlns:xlink="http://www.w3.org/1999/xlink" x="0px" y="0px"
	 viewBox="9.6 7.2 80.8 77.8" enable-background="new 9.6 7.2 80.8 77.8" xml:space="preserve">
<g>
	<polygon fill="#FF3B30" points="56.7,26.1 50.8,25.9 50.5,43.4 32.7,61.4 36.8,65.5 56.3,45.8 	"/>
	<path fill="#FF3B30" d="M87.7,31.9C82.3,17.7,68.6,7.4,52.5,7.2C45.6,7.1,39,8.8,33.3,12c-7.1,3.8-12.9,9.8-16.5,17l-1.6-7.8
		l-5.7,1.2l3.7,17.8l4.4,1.9l15-9.4l-3.1-4.9l-7.5,4.7C25,26,29.9,20.6,36,17.2c4.7-2.5,10-3.9,15.6-3.9c13.6,0,25.2,8.2,30.3,20
		c0.6,1.4,1.1,2.9,1.5,4.4l0.1,0c0.7,2.7,1.1,5.6,1.1,8.5c0,18.2-14.8,33-32.9,33c-15.4,0-28.3-10.6-31.9-24.8l-5.4,2.4
		C18.9,73,33.9,84.9,51.6,84.9c21.4,0,38.8-17.4,38.8-38.8C90.4,41.1,89.4,36.3,87.7,31.9z"/>
</g>
</svg>
