<?xml version="1.0" encoding="utf-8"?>
<!-- Generator: Adobe Illustrator 18.0.0, SVG Export Plug-In . SVG Version: 6.00 Build 0)  -->
<!DOCTYPE svg PUBLIC "-//W3C//DTD SVG 1.1//EN" "http://www.w3.org/Graphics/SVG/1.1/DTD/svg11.dtd">
<svg version="1.1" id="Layer_1" xmlns="http://www.w3.org/2000/svg" xmlns:xlink="http://www.w3.org/1999/xlink" x="0px" y="0px"
	 viewBox="0 0 44 44" enable-background="new 0 0 44 44" xml:space="preserve">
<g>
	<path fill="#FF3B30" d="M22,0C9.8,0,0,9.8,0,22s9.8,22,22,22s22-9.8,22-22S34.2,0,22,0z M22,42.5C10.7,42.5,1.5,33.3,1.5,22
		S10.7,1.5,22,1.5S42.5,10.7,42.5,22S33.3,42.5,22,42.5z"/>
	<polygon fill="#FF3B30" points="21.1,32.8 21.1,22.9 11.2,22.9 11.2,21.1 21.1,21.1 21.1,11.2 22.9,11.2 22.9,21.1 32.8,21.1 
		32.8,22.9 22.9,22.9 22.9,32.8 	"/>
</g>
</svg>
