<?xml version="1.0" encoding="utf-8"?>
<!-- Generator: Adobe Illustrator 18.0.0, SVG Export Plug-In . SVG Version: 6.00 Build 0)  -->
<!DOCTYPE svg PUBLIC "-//W3C//DTD SVG 1.1//EN" "http://www.w3.org/Graphics/SVG/1.1/DTD/svg11.dtd">
<svg version="1.1" id="Layer_1" xmlns="http://www.w3.org/2000/svg" xmlns:xlink="http://www.w3.org/1999/xlink" x="0px" y="0px"
	 viewBox="0 0 62.8 40.3" enable-background="new 0 0 62.8 40.3" xml:space="preserve">
<g>
	<g>
		<path fill="#FF3B30" d="M41.7,15.9c0,0-0.4,1.2-0.4,1.4c-0.1,0.2-0.4,0.7-0.4,0.7c0.1,0,0.9,0.4,0.9,0.4l3.2,1l0,1.5
			c-0.3,0-1.4,0.8-1.5,1.1c-0.1,0.2-0.3,0.7-0.6,0.9c2.9,1.2,4.6,2.9,4.7,4.8c0,0.3,1.8,6.6,1.9,8h13.4c0-0.1-0.4-8.2-0.4-8.2
			c0,0-0.8-2-2-2.2c-1.2-0.2-2.8-0.6-3.4-1.1c-0.4-0.3-1.6-0.8-2.2-1c-0.3-0.1-0.7-0.9-0.9-1.3c-0.2-0.4-1.3-1.1-1.5-1.1l0-1.5
			l3.2-1c0,0,0.8-0.4,0.9-0.4c0.1,0-0.4-0.6-0.4-0.8c-0.1-0.2-0.4-1.3-0.4-1.3s1.1,1.3,1.6,1.6c0,0-1.1-2-1.4-3.1
			c-0.3-1.1-0.5-2.9-0.5-3c0-0.2-0.7-4.8-1-5.6c-0.4-0.8-0.8-1.8-1.7-2.4c-0.8-0.5-2.1-1.3-3.8-1.4c0,0-0.1,0-0.1,0c0,0-0.1,0-0.1,0
			c-1.8,0.1-3,0.8-3.8,1.4c-0.8,0.5-1.3,1.6-1.7,2.4c-0.4,0.8-1,5.5-1,5.6c0,0.2-0.2,2-0.5,3.1c-0.3,1.1-1.4,3.1-1.4,3.1
			C40.7,17.2,41.7,15.9,41.7,15.9z"/>
	</g>
	<g>
		<path fill="#FF3B30" d="M14.1,28.9L14.1,28.9l0-0.2c0.9-3.7,5.4-5.5,7.8-6.6c0,0,0,0,0,0c-1.5-0.7-2.3-1.2-2.6-1.3
			c-0.2-0.3-0.5-2.6-0.5-2.6s1.8-1.6,2.2-4.6c0,0,0.9,0.5,0.9-1.4c0-1.4,0.3-2-0.7-2.4c0,0,0.1-1,0.1-1.9c0-1.3,0.3-3.1-2-4.6
			c-0.3-0.2-2-1.1-2-1.1c-0.6-0.4-1.3-0.6-1.3-0.6l0,0.5c0,0-0.1-0.1-0.1-0.1c-0.1-0.2-0.2-0.7-0.2-1c0-0.4,0-0.4,0-0.4
			C14.7,1.6,14,2.6,14,2.6l0.1-1c0,0-0.2,0.3-2.6,1.8c-2.4,1.5-2,3.7-1.9,5c0,0.9,0.1,1.5,0.1,1.5c-1,0.4-0.5,1-0.4,2.4
			c0,2,1,1.6,1,1.6c0.5,2.7,1.9,4.3,1.9,4.3s-0.4,2.3-0.6,2.6c-0.4,0.1-1.5,0.8-3.6,1.7c-3.1,1.3-2.2,0.5-4.7,1.8
			c-4,2-3.2,10.4-3.2,10.4h12.7L14.1,28.9z"/>
	</g>
	<g>
		<path fill="#FF3B30" d="M48.7,40.3c0-2.4-2.7-12.5-2.7-12.5c0-1.5-1.9-3.2-5.8-4.2c-2-0.5-3.7-1.7-3.7-1.7
			c-0.2-0.1-0.2-1.4-0.2-1.4l-1.2-0.2c0-0.1-0.1-1.7-0.1-1.7c1.5-0.5,1.3-3.4,1.3-3.4c0.9,0.5,1.6-1.8,1.6-1.8c1.1-3.2-0.6-3-0.6-3
			c0.5-2.4,0-5.9,0-5.9c-0.7-6.5-11.9-4.7-10.6-2.6c-3.3-0.6-2.5,6.8-2.5,6.8l0.7,1.9c-1.4,0.9-0.4,2-0.4,3.2
			c0.1,1.8,1.2,1.5,1.2,1.5c0.1,3,1.6,3.4,1.6,3.4c0.3,1.9,0.1,1.6,0.1,1.6l-1.3,0.2c0.1,0.5-0.1,1.3-0.1,1.3
			c-1.6,0.7-1.9,1.1-3.5,1.8c-3,1.3-6.3,3-6.9,5.3c-0.6,2.3-2.3,11.4-2.3,11.4L48.7,40.3L48.7,40.3L48.7,40.3z"/>
	</g>
</g>
</svg>
