<?xml version="1.0" encoding="utf-8"?>
<!-- Generator: Adobe Illustrator 18.0.0, SVG Export Plug-In . SVG Version: 6.00 Build 0)  -->
<!DOCTYPE svg PUBLIC "-//W3C//DTD SVG 1.1//EN" "http://www.w3.org/Graphics/SVG/1.1/DTD/svg11.dtd">
<svg version="1.1" id="Layer_1" xmlns="http://www.w3.org/2000/svg" xmlns:xlink="http://www.w3.org/1999/xlink" x="0px" y="0px"
	 viewBox="0 0 323 323" enable-background="new 0 0 323 323" xml:space="preserve">
<path fill="#FF453B" d="M161.5,0C72.3,0,0,72.3,0,161.5S72.3,323,161.5,323S323,250.7,323,161.5S250.7,0,161.5,0z M161.5,310.3
	c-37.4,0-71.6-13.9-97.8-36.8c6.9-3.6,14.1-6.9,21.2-10c14.1-6.1,17.1-9.8,31.4-16.1c0,0,1.5-7.3,1-11.6l12.1-1.5
	c0,0,1.6,2.9-1-14.3c0,0-13.6-3.6-14.2-30.9c0,0-10.2,3.4-10.8-13.1c-0.4-11.2-9.1-21,3.4-29l-6.4-17.2c0,0-6.7-66.4,22.7-61
	c-11.9-19.1,88.6-35,95.3,23.5c0,0,4.8,31.6,0,53.2c0,0,15-1.7,5,27.1c0,0-5.5,20.8-14,16.1c0,0,1.4,26.3-12,30.7c0,0,0.9,14,0.9,15
	l11.2,1.7c0,0-0.3,11.7,1.9,12.9c0,0,15.1,10.3,33.1,15c6.9,1.8,13.1,3.8,18.7,6C236.5,295,200.8,310.3,161.5,310.3z"/>
</svg>
