<?xml version="1.0" encoding="utf-8"?>
<!-- Generator: Adobe Illustrator 18.0.0, SVG Export Plug-In . SVG Version: 6.00 Build 0)  -->
<!DOCTYPE svg PUBLIC "-//W3C//DTD SVG 1.1//EN" "http://www.w3.org/Graphics/SVG/1.1/DTD/svg11.dtd">
<svg version="1.1" id="Layer_1" xmlns="http://www.w3.org/2000/svg" xmlns:xlink="http://www.w3.org/1999/xlink" x="0px" y="0px"
	 viewBox="0 0 29.3 33.3" enable-background="new 0 0 29.3 33.3" xml:space="preserve">
<g>
	<path fill="#FF3B30" d="M13,27.3l-0.8,0.8l2.1,1.9l-1.9-0.3c-2.8-0.4-5.5-1.8-7.5-3.9l0,0c-1.5-1.6-2.6-3.6-3.2-5.8
		C0.2,14.9,2.1,9.4,6.3,6c0.4-0.3,0.8-0.6,1.2-0.8l0,0l0.1-0.1l-0.4-1C6.8,4.4,6.4,4.6,6,4.9c-2.3,1.7-4.1,4-5.1,6.6
		c-1,2.7-1.2,5.7-0.5,8.5C1,22.5,2.3,24.8,4,26.6c2.1,2.2,4.8,3.7,7.8,4.3l1.7,0.3l-2.1,1.1l0.5,1l3.9-2l0.2-1.2L13,27.3z"/>
	<path fill="#FF3B30" d="M16.3,5.9l0.8-0.8L15,3.3l1.9,0.3c2.8,0.4,5.5,1.8,7.5,3.9l0,0C26,9,27.1,11,27.7,13.2
		c1.4,5.2-0.4,10.7-4.7,14.1c-0.4,0.3-0.8,0.6-1.2,0.8l0,0l-0.1,0.1l0.4,1c0.4-0.3,0.8-0.5,1.2-0.8c2.3-1.7,4.1-4,5.1-6.6
		c1-2.7,1.2-5.7,0.5-8.5c-0.6-2.4-1.9-4.7-3.6-6.5c-2.1-2.2-4.8-3.7-7.8-4.3L15.8,2L17.9,1l-0.5-1l-3.9,2l-0.2,1.2L16.3,5.9z"/>
</g>
</svg>
