<?xml version="1.0" encoding="utf-8"?>
<!-- Generator: Adobe Illustrator 18.0.0, SVG Export Plug-In . SVG Version: 6.00 Build 0)  -->
<!DOCTYPE svg PUBLIC "-//W3C//DTD SVG 1.1//EN" "http://www.w3.org/Graphics/SVG/1.1/DTD/svg11.dtd">
<svg version="1.1" id="Layer_1" xmlns="http://www.w3.org/2000/svg" xmlns:xlink="http://www.w3.org/1999/xlink" x="0px" y="0px"
	 viewBox="0 0 27.5 27.5" enable-background="new 0 0 27.5 27.5" xml:space="preserve">
<g>
	<g>
		<path fill="#FF3B30" d="M10.5,21c-2.8,0-5.4-1.1-7.4-3.1c-2-2-3.1-4.6-3.1-7.4s1.1-5.4,3.1-7.4c2-2,4.6-3.1,7.4-3.1
			s5.4,1.1,7.4,3.1c4.1,4.1,4.1,10.8,0,14.8C15.9,19.9,13.3,21,10.5,21z M10.5,2c-2.3,0-4.4,0.9-6,2.5S2,8.2,2,10.5
			c0,2.3,0.9,4.4,2.5,6s3.7,2.5,6,2.5s4.4-0.9,6-2.5c3.3-3.3,3.3-8.7,0-12C14.9,2.9,12.8,2,10.5,2z"/>
	</g>
	<g>
		<rect x="15.7" y="21.2" transform="matrix(0.7071 0.7071 -0.7071 0.7071 22.167 -9.1819)" fill="#FF3B30" width="13" height="2"/>
	</g>
</g>
</svg>
