<?xml version="1.0" encoding="utf-8"?>
<!-- Generator: Adobe Illustrator 18.0.0, SVG Export Plug-In . SVG Version: 6.00 Build 0)  -->
<!DOCTYPE svg PUBLIC "-//W3C//DTD SVG 1.1//EN" "http://www.w3.org/Graphics/SVG/1.1/DTD/svg11.dtd">
<svg version="1.1" id="Layer_1" xmlns="http://www.w3.org/2000/svg" xmlns:xlink="http://www.w3.org/1999/xlink" x="0px" y="0px"
	 viewBox="0 0 36.7 51" enable-background="new 0 0 36.7 51" xml:space="preserve">
<g>
	<g>
		<path fill="#FF3B30" d="M32.4,7.6 M32.4,7.6c0,0.6-0.1,1.2-0.1,1.8c-0.2,3-0.4,6-0.6,9.1c-0.6,9.7-1.3,19.3-1.4,28.9
			c0,1-0.7,1.8-1.6,1.8c-6.9,0-13.8,0-20.7,0c-0.9,0-1.6-0.8-1.6-1.8c-0.1-9.6-0.8-19.3-1.4-28.9c-0.2-3-0.4-6-0.6-9.1
			c0-0.6-0.1-1.2-0.1-1.8 M2.3,5.9c0.1,1.2,0.1,2.4,0.2,3.6c0.2,3,0.4,6,0.6,9c0.7,9.6,1.5,19.2,1.6,28.9c0,2,1.5,3.6,3.2,3.6
			c6.9,0,13.8,0,20.7,0c1.8,0,3.2-1.6,3.2-3.6c0.2-9.6,0.9-19.2,1.6-28.9c0.2-3,0.4-6,0.6-9c0.1-1.2,0.1-2.4,0.2-3.6l0,0"/>
	</g>
	<g>
		<path fill="#FF3B30" d="M12.2,45.5c-0.5,0-1.1,0-1.6,0c-0.1-11.3-0.7-22.6-1.2-34c0.6,0,1.2,0,1.9,0
			C11.6,22.9,12.1,34.2,12.2,45.5z"/>
		<path fill="#FF3B30" d="M19.1,45.5c-0.5,0-1.1,0-1.6,0c0-11.3-0.1-22.6-0.1-34.1c0.6,0,1.2,0,1.8,0C19.2,22.9,19.1,34.2,19.1,45.5
			z"/>
		<path fill="#FF3B30" d="M26.1,45.5c-0.5,0-1.1,0-1.6,0c0.1-11.3,0.5-22.6,1-34.1c0.6,0,1.2,0,1.9,0C26.8,22.9,26.2,34.2,26.1,45.5
			z"/>
	</g>
	<rect x="0" y="5.9" fill="#FF3B30" width="36.7" height="1.8"/>
	<path fill="#FF3B30" d="M21.5,1.8c0.9,0,1.6,0.8,1.6,1.8v1.8c0,0.2,0,0.3-0.1,0.5h-9.4c0-0.1-0.1-0.3-0.1-0.5V3.6
		c0-1,0.7-1.8,1.6-1.8H21.5 M21.5,0h-6.4C13.4,0,12,1.6,12,3.6v1.8c0,0.9,0.3,1.7,0.7,2.3H24c0.5-0.6,0.7-1.4,0.7-2.3V3.6
		C24.7,1.6,23.3,0,21.5,0L21.5,0z"/>
</g>
</svg>
