<?xml version="1.0" encoding="utf-8"?>
<!-- Generator: Adobe Illustrator 18.0.0, SVG Export Plug-In . SVG Version: 6.00 Build 0)  -->
<!DOCTYPE svg PUBLIC "-//W3C//DTD SVG 1.1//EN" "http://www.w3.org/Graphics/SVG/1.1/DTD/svg11.dtd">
<svg version="1.1" id="Ebene_1" xmlns="http://www.w3.org/2000/svg" xmlns:xlink="http://www.w3.org/1999/xlink" x="0px" y="0px"
	 viewBox="0 0 92 61" enable-background="new 0 0 92 61" xml:space="preserve">
<g>
	<path fill="#cccccc" d="M88.6,5H83V4c0-1-1.4-1-2.4-1h-9.3c-1,0-1.3,0-1.3,1v1H33c-0.9-2-2.6-5-4.8-5h-12c-2.2,0-3.8,3-4.8,5H4.5
		C2.5,5,0,6.5,0,8.5v48.7c0,2,2.5,3.8,4.5,3.8h84c2,0,3.4-1.8,3.4-3.8V8.5C92,6.5,90.6,5,88.6,5z M22,12.7c0,0.7-0.6,1.3-1.3,1.3
		h-6.4c-0.7,0-1.3-0.6-1.3-1.3V9.3C13,8.6,13.6,8,14.3,8h6.4C21.4,8,22,8.6,22,9.3V12.7z M62.7,50.9c-9.9,0-17.9-8-17.9-17.9
		c0-9.9,8-17.9,17.9-17.9c9.9,0,17.9,8,17.9,17.9C80.6,42.8,72.5,50.9,62.7,50.9z"/>
	<path fill="#cccccc" d="M62.7,19.5c-7.4,0-13.5,6.1-13.5,13.5c0,7.4,6.1,13.5,13.5,13.5c7.4,0,13.5-6.1,13.5-13.5
		S70.1,19.5,62.7,19.5z"/>
</g>
</svg>
