<?xml version="1.0" encoding="utf-8"?>
<!-- Generator: Adobe Illustrator 18.0.0, SVG Export Plug-In . SVG Version: 6.00 Build 0)  -->
<!DOCTYPE svg PUBLIC "-//W3C//DTD SVG 1.1//EN" "http://www.w3.org/Graphics/SVG/1.1/DTD/svg11.dtd">
<svg version="1.1" id="Ebene_1" xmlns="http://www.w3.org/2000/svg" xmlns:xlink="http://www.w3.org/1999/xlink" x="0px" y="0px"
	 viewBox="0 0 167 167" enable-background="new 0 0 167 167" xml:space="preserve">
<g>
	<circle fill="#48C0F2" cx="83.5" cy="83.5" r="83.5"/>
	<path fill="#FFFFFF" d="M125,57.8c-3.1,1.4-6.3,2.3-9.8,2.7c3.5-2.1,6.2-5.4,7.5-9.4c-3.3,1.9-6.9,3.4-10.8,4.1
		c-3.1-3.3-7.5-5.4-12.4-5.4c-9.4,0-17,7.6-17,17c0,1.3,0.2,2.6,0.4,3.9C68.7,70,56.2,63.2,47.8,52.9c-1.5,2.5-2.3,5.4-2.3,8.6
		c0,5.9,3,11.1,7.6,14.2c-2.8-0.1-5.4-0.9-7.7-2.1c0,0.1,0,0.1,0,0.2c0,8.2,5.9,15.1,13.6,16.7c-1.4,0.4-2.9,0.6-4.5,0.6
		c-1.1,0-2.2-0.1-3.2-0.3c2.2,6.8,8.4,11.7,15.9,11.8c-5.8,4.6-13.2,7.3-21.1,7.3c-1.4,0-2.7-0.1-4.1-0.2c7.5,4.8,16.5,7.6,26.1,7.6
		c31.3,0,48.4-25.9,48.4-48.4c0-0.7,0-1.5,0-2.2C119.8,64.2,122.7,61.2,125,57.8z"/>
</g>
</svg>
